<?xml version="1.0" encoding="UTF-8"?>
<svg xmlns="http://www.w3.org/2000/svg" xmlns:xlink="http://www.w3.org/1999/xlink" width="50pt" height="50pt" viewBox="0 0 50 50" version="1.1">
<g id="surface14250217">
<path style=" stroke:none;fill-rule:nonzero;fill:rgb(100%,100%,100%);fill-opacity:1;" d="M 25 1.25 C 11.882812 1.25 1.25 11.882812 1.25 25 C 1.25 38.117188 11.882812 48.75 25 48.75 C 38.117188 48.75 48.75 38.117188 48.75 25 C 48.75 11.882812 38.117188 1.25 25 1.25 Z M 25 1.25 "/>
<path style=" stroke:none;fill-rule:nonzero;fill:rgb(94.509804%,23.529412%,43.137255%);fill-opacity:1;" d="M 25 2.5 C 37.40625 2.5 47.5 12.59375 47.5 25 C 47.5 37.40625 37.40625 47.5 25 47.5 C 12.59375 47.5 2.5 37.40625 2.5 25 C 2.5 12.59375 12.59375 2.5 25 2.5 M 25 1.25 C 11.882812 1.25 1.25 11.882812 1.25 25 C 1.25 38.117188 11.882812 48.75 25 48.75 C 38.117188 48.75 48.75 38.117188 48.75 25 C 48.75 11.882812 38.117188 1.25 25 1.25 Z M 25 1.25 "/>
<path style=" stroke:none;fill-rule:nonzero;fill:rgb(94.509804%,23.529412%,43.137255%);fill-opacity:1;" d="M 38.671875 18.175781 C 38.730469 17.988281 38.757812 17.8125 38.75 17.65625 C 38.730469 17.203125 38.417969 16.875 37.6875 16.875 L 34.414062 16.875 C 33.585938 16.875 33.207031 17.375 32.984375 17.875 C 32.984375 17.875 30.945312 22.074219 28.59375 24.84375 C 27.828125 25.644531 27.441406 25.625 27.03125 25.625 C 26.808594 25.625 26.25 25.359375 26.25 24.625 L 26.25 18.140625 C 26.25 17.273438 26.035156 16.875 25.335938 16.875 L 19.523438 16.875 C 19.015625 16.875 18.75 17.273438 18.75 17.675781 C 18.75 18.511719 19.871094 18.710938 20 21.046875 L 20 25.574219 C 20 26.675781 19.808594 26.875 19.394531 26.875 C 18.285156 26.875 16.09375 23.125 14.628906 18.210938 C 14.308594 17.242188 13.992188 16.875 13.167969 16.875 L 9.863281 16.875 C 8.910156 16.875 8.75 17.34375 8.75 17.84375 C 8.75 18.742188 9.5 23.617188 13.59375 29.21875 C 16.5625 33.28125 20.472656 35.625 23.9375 35.625 C 26.035156 35.625 26.25 35.089844 26.25 34.257812 L 26.25 30.542969 C 26.25 29.542969 26.480469 29.375 27.144531 29.375 C 27.621094 29.375 28.59375 29.6875 30.46875 31.875 C 32.632812 34.398438 33.023438 35.625 34.265625 35.625 L 37.535156 35.625 C 38.296875 35.625 38.734375 35.304688 38.75 34.6875 C 38.753906 34.53125 38.730469 34.355469 38.679688 34.15625 C 38.4375 33.4375 37.324219 31.675781 35.9375 30 C 35.167969 29.070312 34.410156 28.152344 34.0625 27.652344 C 33.828125 27.324219 33.738281 27.09375 33.75 26.875 C 33.761719 26.644531 33.882812 26.421875 34.0625 26.117188 C 34.027344 26.117188 38.257812 20.175781 38.671875 18.175781 Z M 38.671875 18.175781 "/>
</g>
</svg>
