<?xml version="1.0" encoding="iso-8859-1"?>
<!-- Generator: Adobe Illustrator 16.0.0, SVG Export Plug-In . SVG Version: 6.00 Build 0)  -->
<!DOCTYPE svg PUBLIC "-//W3C//DTD SVG 1.1//EN" "http://www.w3.org/Graphics/SVG/1.1/DTD/svg11.dtd">
<svg version="1.1" id="Capa_1" xmlns="http://www.w3.org/2000/svg" xmlns:xlink="http://www.w3.org/1999/xlink" x="0px" y="0px"
	 width="611.989px" height="611.99px" viewBox="0 0 611.989 611.99" style="enable-background:new 0 0 611.989 611.99;"
	 xml:space="preserve">
<g>
	<g id="Shape_26_2_">
		<g>
			<path d="M515.468,319.663C468.577,190.66,318.099,185.207,316.574,185.158c-2.664-0.01-5.087,0.927-6.94,2.77
				c-1.853,1.825-2.896,4.344-2.896,6.969v116.878H9.584c-5.289,0-9.584,4.354-9.584,9.739v136.348c0,5.386,4.295,9.739,9.584,9.739
				h47.923c1.931,0,3.629-0.724,5.135-1.728c5-0.328,8.986-4.45,8.986-9.614c0-42.025,33.657-76.233,75.027-76.233
				c40.472,0,73.473,32.76,74.892,73.531c-0.647,1.312-1.101,2.741-1.101,4.305c0,5.386,4.295,9.739,9.585,9.739h143.799
				c1.931,0,3.629-0.724,5.135-1.728c5-0.328,8.986-4.45,8.986-9.614c0-42.025,33.657-76.233,75.027-76.233
				c40.472,0,73.473,32.76,74.892,73.531c-0.646,1.312-1.101,2.741-1.101,4.305c0,5.386,4.295,9.739,9.585,9.739h55.731
				c5.039,0,9.218-3.967,9.565-9.063C617.878,367.209,535.95,328.011,515.468,319.663z M325.908,205.447
				c28.242,3.156,110.16,18.233,154.493,86.841H325.908V205.447z M556.789,448.124c-4.083-48.976-44.555-87.574-93.791-87.574
				c-49.245,0-89.707,38.599-93.79,87.574H240.466c-4.083-48.976-44.555-87.574-93.791-87.574
				c-49.246,0-89.708,38.599-93.791,87.574H19.169V331.254h297.154c5.289,0,9.585-4.354,9.585-9.739v-9.739h162.958
				c0.802,0,1.516-0.27,2.259-0.463c2.857,6.023,5.473,12.326,7.741,19.044c0.975,2.886,3.243,5.135,6.091,6.091
				c3.696,1.235,87.43,30.144,87.874,111.676H556.789z M146.675,390.452c-32.064,0-58.145,26.495-58.145,59.071
				c0,32.577,26.081,59.082,58.145,59.082c32.065,0,58.145-26.505,58.145-59.082C204.811,416.947,178.73,390.452,146.675,390.452z
				 M146.675,489.126c-21.496,0-38.976-17.77-38.976-39.604c0-21.833,17.48-39.593,38.976-39.593s38.976,17.77,38.976,39.593
				C185.642,471.357,168.161,489.126,146.675,489.126z M462.989,390.452c-32.065,0-58.146,26.495-58.146,59.071
				c0,32.577,26.08,59.082,58.146,59.082c32.064,0,58.145-26.505,58.145-59.082C521.134,416.947,495.054,390.452,462.989,390.452z
				 M462.989,489.126c-21.496,0-38.977-17.77-38.977-39.604c0-21.833,17.48-39.593,38.977-39.593
				c21.495,0,38.976,17.77,38.976,39.593C501.965,471.357,484.484,489.126,462.989,489.126z M82.025,302.278h155.043
				c31.302,0,56.774-25.877,56.774-57.691v-83.521c0-31.804-25.472-57.682-56.774-57.682H82.025
				c-31.302,0-56.774,25.878-56.774,57.682v83.521C25.25,276.401,50.723,302.278,82.025,302.278z M44.419,161.066
				c0-21.071,16.863-38.204,37.605-38.204h155.043c20.733,0,37.605,17.143,37.605,38.204v83.521
				c0,21.081-16.872,38.213-37.605,38.213H82.025c-20.733,0-37.605-17.143-37.605-38.213V161.066z"/>
		</g>
	</g>
</g>
<g>
</g>
<g>
</g>
<g>
</g>
<g>
</g>
<g>
</g>
<g>
</g>
<g>
</g>
<g>
</g>
<g>
</g>
<g>
</g>
<g>
</g>
<g>
</g>
<g>
</g>
<g>
</g>
<g>
</g>
</svg>
